<?xml version='1.0' encoding='utf-8'?>
<svg xmlns="http://www.w3.org/2000/svg" id="Layer_1" data-name="Layer 1" viewBox="0 0 319.55 319.55"><defs><style>.cls-1,.cls-2,.cls-3{fill:#fff;}.cls-1,.cls-3{stroke:#1d1d1b;stroke-miterlimit:10;}.cls-1{stroke-width:15.22px;}.cls-3{stroke-width:4px;}</style></defs><rect class="cls-1" x="7.61" y="7.61" width="304.33" height="304.33" rx="25.36"/><path d="M207.49,99.16l18.16-19.27A18.3,18.3,0,0,1,229,76.46l8.52-8.8-19.6-20.23-51.54,53.2c-8.59,2-16.26,3.7-19.2,4.16-8.34,1.29-16.87,2.39-25.34,3.25S104.54,109.57,96,110c-6.69.32-13.5.51-20.24.55a3.79,3.79,0,0,0-3.15,1.74,4.22,4.22,0,0,0-.36.7,1.06,1.06,0,0,0-.19.55v.06A3.9,3.9,0,0,0,72,114.9a6.62,6.62,0,0,0,0,.77,52.2,52.2,0,0,0,1.56,7.93c.37,1.67.76,3.34,1.19,5,0,.1.06.2.08.3,1.34,4.9,2.64,9.82,3.82,14.77.43,1.82,1.11,3.59,1.4,5.43.52,3.19,1.49,6.27,2.23,9.39,1.18,5,2.39,9.9,3.53,14.87,1.37,6,2.87,11.88,4.12,17.87.79,3.76,1.7,7.49,2.62,11.21,1.53,6.2,2.76,12.47,4.15,18.71.74,3.33,1.57,6.65,2.33,10,.65,2.86,1.56,5.67,2,8.57L102.4,246a2.6,2.6,0,0,0,3,2.05l5.12-1c13.14-3.44,132.23-44.2,134-45.06,2-.51,3.31-1.51,2.88-2.88C247.47,199.07,208.16,99.07,207.49,99.16ZM243.13,200.4l-1,.26c-4.88,1.4-9.81,3.05-14.58,4.65-4.53,1.52-9.21,3.09-13.84,4.44-9,2.61-18.69,5.31-28.44,7.32-8,1.64-15.25,2.86-22.25,3.72-4.51.55-9.43,1-15.48,1.36a179.4,179.4,0,0,1-20.39.06,2.2,2.2,0,0,1-2.11-1.42c-6.19-11.45-12.19-23-17.84-34.22-11-22-21.67-44.8-32.45-69.68L74,115.32a2.15,2.15,0,0,1,.16-2,1.91,1.91,0,0,1,1.62-.9c6.75,0,13.59-.23,20.31-.55,8.54-.42,17.25-1.07,25.88-2s17.06-2,25.44-3.27c2.66-.41,9.08-1.84,16.54-3.55L148.2,119.36l-3.59,17.43-1.71,8.27,8-1.76,16.88-3.71L206,100.15c3.07,7.87,10.15,25.46,17.57,43.9,9.66,24,20.53,51,22.16,55.65C245,199.94,243.75,200.25,243.13,200.4Zm-78-62.87L152,140.41a7,7,0,0,0-4.63-4.77l2.8-13.56Z"/><path class="cls-2" d="M152,140.41l13.14-2.88-15-15.45-2.8,13.56A7,7,0,0,1,152,140.41Z"/><path class="cls-3" d="M223.59,144.05c-7.42-18.44-14.5-36-17.57-43.9L167.8,139.59l-16.88,3.71-8,1.76,1.71-8.27,3.59-17.43L164,103.07c-7.46,1.71-13.88,3.14-16.54,3.55-8.38,1.3-16.94,2.4-25.44,3.27s-17.34,1.53-25.88,2c-6.72.32-13.56.5-20.31.55a1.91,1.91,0,0,0-1.62.9,2.15,2.15,0,0,0-.16,2l.68,1.57c10.78,24.88,21.4,47.67,32.45,69.68,5.65,11.25,11.65,22.77,17.84,34.22a2.2,2.2,0,0,0,2.11,1.42,179.4,179.4,0,0,0,20.39-.06c6.05-.37,11-.81,15.48-1.36,7-.86,14.28-2.08,22.25-3.72,9.75-2,19.43-4.71,28.44-7.32,4.63-1.35,9.31-2.92,13.84-4.44,4.77-1.6,9.7-3.25,14.58-4.65l1-.26c.62-.15,1.88-.46,2.62-.7C244.12,195.06,233.25,168.05,223.59,144.05Z"/></svg>